<svg style="color: #ffffff" xmlns="http://www.w3.org/2000/svg" width="36.908ex" height="2.262ex" role="img" focusable="false" viewBox="0 -750 16313.2 1000" xmlns:xlink="http://www.w3.org/1999/xlink" aria-hidden="true"><rect x="0" y="0" width="100%" height="100%" fill="#000000"/><defs><path id="MJX-3-TEX-N-28" d="M94 250Q94 319 104 381T127 488T164 576T202 643T244 695T277 729T302 750H315H319Q333 750 333 741Q333 738 316 720T275 667T226 581T184 443T167 250T184 58T225 -81T274 -167T316 -220T333 -241Q333 -250 318 -250H315H302L274 -226Q180 -141 137 -14T94 250Z"/><path id="MJX-3-TEX-N-2E" d="M78 60Q78 84 95 102T138 120Q162 120 180 104T199 61Q199 36 182 18T139 0T96 17T78 60Z"/><path id="MJX-3-TEX-I-1D465" d="M52 289Q59 331 106 386T222 442Q257 442 286 424T329 379Q371 442 430 442Q467 442 494 420T522 361Q522 332 508 314T481 292T458 288Q439 288 427 299T415 328Q415 374 465 391Q454 404 425 404Q412 404 406 402Q368 386 350 336Q290 115 290 78Q290 50 306 38T341 26Q378 26 414 59T463 140Q466 150 469 151T485 153H489Q504 153 504 145Q504 144 502 134Q486 77 440 33T333 -11Q263 -11 227 52Q186 -10 133 -10H127Q78 -10 57 16T35 71Q35 103 54 123T99 143Q142 143 142 101Q142 81 130 66T107 46T94 41L91 40Q91 39 97 36T113 29T132 26Q168 26 194 71Q203 87 217 139T245 247T261 313Q266 340 266 352Q266 380 251 392T217 404Q177 404 142 372T93 290Q91 281 88 280T72 278H58Q52 284 52 289Z"/><path id="MJX-3-TEX-N-31" d="M213 578L200 573Q186 568 160 563T102 556H83V602H102Q149 604 189 617T245 641T273 663Q275 666 285 666Q294 666 302 660V361L303 61Q310 54 315 52T339 48T401 46H427V0H416Q395 3 257 3Q121 3 100 0H88V46H114Q136 46 152 46T177 47T193 50T201 52T207 57T213 61V578Z"/><path id="MJX-3-TEX-N-2212" d="M84 237T84 250T98 270H679Q694 262 694 250T679 230H98Q84 237 84 250Z"/><path id="MJX-3-TEX-N-32" d="M109 429Q82 429 66 447T50 491Q50 562 103 614T235 666Q326 666 387 610T449 465Q449 422 429 383T381 315T301 241Q265 210 201 149L142 93L218 92Q375 92 385 97Q392 99 409 186V189H449V186Q448 183 436 95T421 3V0H50V19V31Q50 38 56 46T86 81Q115 113 136 137Q145 147 170 174T204 211T233 244T261 278T284 308T305 340T320 369T333 401T340 431T343 464Q343 527 309 573T212 619Q179 619 154 602T119 569T109 550Q109 549 114 549Q132 549 151 535T170 489Q170 464 154 447T109 429Z"/><path id="MJX-3-TEX-N-29" d="M60 749L64 750Q69 750 74 750H86L114 726Q208 641 251 514T294 250Q294 182 284 119T261 12T224 -76T186 -143T145 -194T113 -227T90 -246Q87 -249 86 -250H74Q66 -250 63 -250T58 -247T55 -238Q56 -237 66 -225Q221 -64 221 250T66 725Q56 737 55 738Q55 746 60 749Z"/><path id="MJX-3-TEX-N-33" d="M127 463Q100 463 85 480T69 524Q69 579 117 622T233 665Q268 665 277 664Q351 652 390 611T430 522Q430 470 396 421T302 350L299 348Q299 347 308 345T337 336T375 315Q457 262 457 175Q457 96 395 37T238 -22Q158 -22 100 21T42 130Q42 158 60 175T105 193Q133 193 151 175T169 130Q169 119 166 110T159 94T148 82T136 74T126 70T118 67L114 66Q165 21 238 21Q293 21 321 74Q338 107 338 175V195Q338 290 274 322Q259 328 213 329L171 330L168 332Q166 335 166 348Q166 366 174 366Q202 366 232 371Q266 376 294 413T322 525V533Q322 590 287 612Q265 626 240 626Q208 626 181 615T143 592T132 580H135Q138 579 143 578T153 573T165 566T175 555T183 540T186 520Q186 498 172 481T127 463Z"/><path id="MJX-3-TEX-I-1D45B" d="M21 287Q22 293 24 303T36 341T56 388T89 425T135 442Q171 442 195 424T225 390T231 369Q231 367 232 367L243 378Q304 442 382 442Q436 442 469 415T503 336T465 179T427 52Q427 26 444 26Q450 26 453 27Q482 32 505 65T540 145Q542 153 560 153Q580 153 580 145Q580 144 576 130Q568 101 554 73T508 17T439 -10Q392 -10 371 17T350 73Q350 92 386 193T423 345Q423 404 379 404H374Q288 404 229 303L222 291L189 157Q156 26 151 16Q138 -11 108 -11Q95 -11 87 -5T76 7T74 17Q74 30 112 180T152 343Q153 348 153 366Q153 405 129 405Q91 405 66 305Q60 285 60 284Q58 278 41 278H27Q21 284 21 287Z"/></defs><g stroke="currentColor" fill="currentColor" stroke-width="0" transform="scale(1,-1)"><g data-mml-node="math"><g data-mml-node="mo"><use data-c="28" xlink:href="#MJX-3-TEX-N-28" xmlns:xlink="http://www.w3.org/1999/xlink"/></g><g data-mml-node="mo" transform="translate(389,0)"><use data-c="2E" xlink:href="#MJX-3-TEX-N-2E" xmlns:xlink="http://www.w3.org/1999/xlink"/></g><g data-mml-node="mo" transform="translate(833.7,0)"><use data-c="2E" xlink:href="#MJX-3-TEX-N-2E" xmlns:xlink="http://www.w3.org/1999/xlink"/></g><g data-mml-node="mo" transform="translate(1278.3,0)"><use data-c="2E" xlink:href="#MJX-3-TEX-N-2E" xmlns:xlink="http://www.w3.org/1999/xlink"/></g><g data-mml-node="mo" transform="translate(1723,0)"><use data-c="28" xlink:href="#MJX-3-TEX-N-28" xmlns:xlink="http://www.w3.org/1999/xlink"/></g><g data-mml-node="mo" transform="translate(2112,0)"><use data-c="28" xlink:href="#MJX-3-TEX-N-28" xmlns:xlink="http://www.w3.org/1999/xlink"/></g><g data-mml-node="msub" transform="translate(2501,0)"><g data-mml-node="mi"><use data-c="1D465" xlink:href="#MJX-3-TEX-I-1D465" xmlns:xlink="http://www.w3.org/1999/xlink"/></g><g data-mml-node="mn" transform="translate(605,-150) scale(0.707)"><use data-c="31" xlink:href="#MJX-3-TEX-N-31" xmlns:xlink="http://www.w3.org/1999/xlink"/></g></g><g data-mml-node="mo" transform="translate(3731.8,0)"><use data-c="2212" xlink:href="#MJX-3-TEX-N-2212" xmlns:xlink="http://www.w3.org/1999/xlink"/></g><g data-mml-node="msub" transform="translate(4732,0)"><g data-mml-node="mi"><use data-c="1D465" xlink:href="#MJX-3-TEX-I-1D465" xmlns:xlink="http://www.w3.org/1999/xlink"/></g><g data-mml-node="mn" transform="translate(605,-150) scale(0.707)"><use data-c="32" xlink:href="#MJX-3-TEX-N-32" xmlns:xlink="http://www.w3.org/1999/xlink"/></g></g><g data-mml-node="mo" transform="translate(5740.6,0)"><use data-c="29" xlink:href="#MJX-3-TEX-N-29" xmlns:xlink="http://www.w3.org/1999/xlink"/></g><g data-mml-node="mo" transform="translate(6351.8,0)"><use data-c="2212" xlink:href="#MJX-3-TEX-N-2212" xmlns:xlink="http://www.w3.org/1999/xlink"/></g><g data-mml-node="msub" transform="translate(7352,0)"><g data-mml-node="mi"><use data-c="1D465" xlink:href="#MJX-3-TEX-I-1D465" xmlns:xlink="http://www.w3.org/1999/xlink"/></g><g data-mml-node="mn" transform="translate(605,-150) scale(0.707)"><use data-c="33" xlink:href="#MJX-3-TEX-N-33" xmlns:xlink="http://www.w3.org/1999/xlink"/></g></g><g data-mml-node="mo" transform="translate(8360.5,0)"><use data-c="29" xlink:href="#MJX-3-TEX-N-29" xmlns:xlink="http://www.w3.org/1999/xlink"/></g><g data-mml-node="mo" transform="translate(8749.5,0)"><use data-c="2212" xlink:href="#MJX-3-TEX-N-2212" xmlns:xlink="http://www.w3.org/1999/xlink"/></g><g data-mml-node="mo" transform="translate(9527.5,0)"><use data-c="2E" xlink:href="#MJX-3-TEX-N-2E" xmlns:xlink="http://www.w3.org/1999/xlink"/></g><g data-mml-node="mo" transform="translate(9972.2,0)"><use data-c="2E" xlink:href="#MJX-3-TEX-N-2E" xmlns:xlink="http://www.w3.org/1999/xlink"/></g><g data-mml-node="mo" transform="translate(10416.9,0)"><use data-c="2E" xlink:href="#MJX-3-TEX-N-2E" xmlns:xlink="http://www.w3.org/1999/xlink"/></g><g data-mml-node="mo" transform="translate(10861.5,0)"><use data-c="2212" xlink:href="#MJX-3-TEX-N-2212" xmlns:xlink="http://www.w3.org/1999/xlink"/></g><g data-mml-node="msub" transform="translate(11639.5,0)"><g data-mml-node="mi"><use data-c="1D465" xlink:href="#MJX-3-TEX-I-1D465" xmlns:xlink="http://www.w3.org/1999/xlink"/></g><g data-mml-node="TeXAtom" transform="translate(605,-150) scale(0.707)" data-mjx-texclass="ORD"><g data-mml-node="mi"><use data-c="1D45B" xlink:href="#MJX-3-TEX-I-1D45B" xmlns:xlink="http://www.w3.org/1999/xlink"/></g><g data-mml-node="mo" transform="translate(600,0)"><use data-c="2212" xlink:href="#MJX-3-TEX-N-2212" xmlns:xlink="http://www.w3.org/1999/xlink"/></g><g data-mml-node="mn" transform="translate(1378,0)"><use data-c="31" xlink:href="#MJX-3-TEX-N-31" xmlns:xlink="http://www.w3.org/1999/xlink"/></g></g></g><g data-mml-node="mo" transform="translate(13622.5,0)"><use data-c="29" xlink:href="#MJX-3-TEX-N-29" xmlns:xlink="http://www.w3.org/1999/xlink"/></g><g data-mml-node="mo" transform="translate(14233.7,0)"><use data-c="2212" xlink:href="#MJX-3-TEX-N-2212" xmlns:xlink="http://www.w3.org/1999/xlink"/></g><g data-mml-node="msub" transform="translate(15233.9,0)"><g data-mml-node="mi"><use data-c="1D465" xlink:href="#MJX-3-TEX-I-1D465" xmlns:xlink="http://www.w3.org/1999/xlink"/></g><g data-mml-node="mi" transform="translate(605,-150) scale(0.707)"><use data-c="1D45B" xlink:href="#MJX-3-TEX-I-1D45B" xmlns:xlink="http://www.w3.org/1999/xlink"/></g></g></g></g></svg>